<svg xmlns="http://www.w3.org/2000/svg" width="560.514" height="557.854" viewBox="0 0 560.514 557.854">
  <g id="Сгруппировать_766" data-name="Сгруппировать 766" transform="translate(-3247.202 -1061.858)">
    <path id="Контур_1121" data-name="Контур 1121" d="M3461.29,1106.585a179.584,179.584,0,1,1-179.583,179.579,179.585,179.585,0,0,1,179.583-179.579" transform="translate(118.768 153.959)" fill="#e3e0ff" fill-rule="evenodd"/>
    <path id="Контур_1122" data-name="Контур 1122" d="M3396.646,1101.375A149.45,149.45,0,1,1,3247.2,1250.826a149.452,149.452,0,0,1,149.444-149.452" transform="translate(0 136.022)" fill="#e3e0ff" fill-rule="evenodd"/>
    <path id="Контур_1123" data-name="Контур 1123" d="M3461.023,1068.108a175.07,175.07,0,1,1-175.07,175.071,175.071,175.071,0,0,1,175.07-175.071" transform="translate(133.383 21.515)" fill="#e3e0ff" fill-rule="evenodd"/>
    <path id="Контур_1124" data-name="Контур 1124" d="M3305.326,1174.081v28.971l-12.543-7.243-12.547-7.243,12.547-7.242Z" transform="translate(113.707 386.29)" fill="#e3e0ff" fill-rule="evenodd"/>
    <path id="Контур_1125" data-name="Контур 1125" d="M3271.136,1093.069l6,10.4,6.007,10.4h-24.021l6-10.4Z" transform="translate(41.047 107.433)" fill="#e3e0ff" fill-rule="evenodd"/>
    <path id="Контур_1126" data-name="Контур 1126" d="M3352.132,1087.92l-3.126,11.677-3.13,11.677-8.554-8.548-8.549-8.543,11.684-3.135Z" transform="translate(280.774 89.709)" fill="#fff" fill-rule="evenodd"/>
    <path id="Контур_1127" data-name="Контур 1127" d="M3478.443,1130.92c.01-.022,1.533-7.49,3.491-13.58,2.1-6.543,2.915-17.768-2.945-18.3a11.594,11.594,0,0,0-9.263-5.668c-6.426-.325-14.161.217-18.625-1.524-8.315-3.243-11.562,14.188,2.568,15.836-.236,5.468-.733,24.672,3.918,26.049a10.843,10.843,0,0,0,5.614-.547l.543,1.635-2.83,1.284s-19.54,4.78-24.6,9.035c-2.52,2.127-5.539,7.592-7.929,12.536l-72.047-19.3-47.677,12.775,34.9,34.9,2.625.707s9.834,8.5,16.081,11.3a18.415,18.415,0,0,0,11.7,1.19s34.168,27.12,45.338,23.4c3.726-1.248,8.09-6.53,12.238-13.024l8.564,2.3c-2.271,16.2-6.393,33.294-6.393,33.294s.284.164.831.453c-3.474,18.146-9.839,51.3-10.349,53.208-.644,2.422,2.046,62.071,2.628,90.118h1.516l.536,3.448h-1.243l.831,4.3c-4.251,1.533-12.887,2.2-15.183,3.745-3.119,2.092-4.426,8.5-4.426,8.5h43.029l-1.049-12.2h-1.2l.2-7.792h1.176c2.448-21.087,7.48-60.3,8.572-64.966,1.232-5.3.08-17.977,1.081-22.149s6.016-26.764,6.016-26.764,1.885,19.7,2.447,28.132c.412,6.161,11.759,58.157,17.847,85.747h1.831l.751,3.3h-1.214l1.191,4.446c-4.132,1.533-12.718,2.2-14.9,3.745-2.963,2.092-3.794,8.5-3.794,8.5h43.031l-1.96-12.2h-1.2l-.383-7.792h2.057c-.141-9.47-.3-21.62-.315-31.619-.017-19.514-3.166-42.605-3.5-51.565-.231-5.947,2.688-35.448,4.678-54.617.524-.244.792-.381.792-.381s1.1-7.378,2.22-18.488c8.8,2.354,41.835,11.439,44.238,11.7,5.255.577,9.2-1.049,11.772-5.687l1.692-4.246,5.87-21.9c2.853-10.652-3.319-14.487-7.973-16.081l-33.295-8.92c-3.012-9.151-14.827-39.723-22.353-45.119-6.215-4.456-34.489-8.716-37.087-9.138Z" transform="translate(211.558 101.844)" fill="#cfd3fa" fill-rule="evenodd"/>
    <path id="Контур_1128" data-name="Контур 1128" d="M3441.619,1076.87H3301.038a30.92,30.92,0,0,0-30.829,30.829v347.275c0,.928.04,1.848.13,2.755H3472.32c.08-.907.123-1.826.123-2.755V1107.7a30.918,30.918,0,0,0-30.823-30.829" transform="translate(79.19 51.675)" fill="#979fff" fill-rule="evenodd"/>
    <path id="Контур_1129" data-name="Контур 1129" d="M3315.925,1061.858l6.011,10.393,6.006,10.406h-24.02l6.006-10.406Z" transform="translate(195.238 0)" fill="#e3e0ff" fill-rule="evenodd"/>
    <path id="Контур_1130" data-name="Контур 1130" d="M3335.017,1169.956l-2.35,8.761-2.343,8.761-6.417-6.412-6.407-6.412,8.756-2.35Z" transform="translate(241.978 372.091)" fill="#fff" fill-rule="evenodd"/>
    <path id="Контур_1131" data-name="Контур 1131" d="M3446.566,1070.821H3305.99a30.914,30.914,0,0,0-30.825,30.824v347.28a30.915,30.915,0,0,0,30.825,30.829h140.576a30.92,30.92,0,0,0,30.828-30.829v-347.28a30.919,30.919,0,0,0-30.828-30.824" transform="translate(96.249 30.854)" fill="#000038" fill-rule="evenodd"/>
    <path id="Контур_1132" data-name="Контур 1132" d="M3436.216,1073.416H3416.9v3.2a12.555,12.555,0,0,1-12.523,12.518h-73.3a12.558,12.558,0,0,1-12.522-12.518v-3.2h-19.314a21.662,21.662,0,0,0-21.6,21.6v344.659a21.66,21.66,0,0,0,21.6,21.6h136.97a21.664,21.664,0,0,0,21.6-21.6V1095.014a21.666,21.666,0,0,0-21.6-21.6" transform="translate(104.796 39.786)" fill="#fff" fill-rule="evenodd"/>
    <path id="Контур_1133" data-name="Контур 1133" d="M3318.863,1087.923a27.017,27.017,0,1,0,27.017,27.018,27.018,27.018,0,0,0-27.017-27.018" transform="translate(153.665 89.721)" fill="#000038" fill-rule="evenodd"/>
    <path id="Контур_1134" data-name="Контур 1134" d="M3313.159,1089.986h0a9.984,9.984,0,1,0,9.99,9.986,9.985,9.985,0,0,0-9.99-9.986m-19.657,36.382a27.009,27.009,0,0,0,39.318,0,20.436,20.436,0,0,0-39.318,0Z" transform="translate(159.369 96.823)" fill="#cff2eb" fill-rule="evenodd"/>
    <path id="Контур_1135" data-name="Контур 1135" d="M3424.144,1103.8H3284.735a3.373,3.373,0,0,0-3.367,3.363v14.015a3.371,3.371,0,0,0,3.367,3.363h139.409a3.371,3.371,0,0,0,3.368-3.363v-14.015a3.374,3.374,0,0,0-3.368-3.363" transform="translate(117.601 144.366)" fill="#cff2eb" fill-rule="evenodd"/>
    <path id="Контур_1136" data-name="Контур 1136" d="M3424.144,1113.138H3284.735a3.37,3.37,0,0,0-3.367,3.363v14.01a3.371,3.371,0,0,0,3.367,3.367h139.409a3.371,3.371,0,0,0,3.368-3.367V1116.5a3.371,3.371,0,0,0-3.368-3.363" transform="translate(117.601 176.516)" fill="#cff2eb" fill-rule="evenodd"/>
    <path id="Контур_1137" data-name="Контур 1137" d="M3341.583,1122.477h-45.636a4.232,4.232,0,0,0-4.215,4.215V1139a4.233,4.233,0,0,0,4.215,4.22h45.636a4.232,4.232,0,0,0,4.216-4.22v-12.309a4.231,4.231,0,0,0-4.216-4.215" transform="translate(153.276 208.662)" fill="#000038" fill-rule="evenodd"/>
    <path id="Контур_1138" data-name="Контур 1138" d="M3283.454,1115.158h0a.7.7,0,0,1,.8-1.146c3.365,2.319,8.572-.924,13.93-4.277,6.624-4.132,13.464-8.4,18.416-3.372a6.278,6.278,0,0,1,2.142,4.518,36.472,36.472,0,0,1,6.418.626c5.89,1.1,10.439-.866,14.117-2.466,2.453-1.053,4.54-1.959,6.507-1.8,3.546.289,3.67,3.2,3.431,4.917a2.066,2.066,0,0,1,.438-.342c3.482-1.986,11.19-6.379,16.015-4.754,2.946,1,3.079,2.794,2.533,4.4a8.86,8.86,0,0,1-.764,1.608c5.956-.417,11.167-2.154,16.306-3.874,9.888-3.3,19.521-6.508,33.81-.4a.7.7,0,0,1,.368.911.687.687,0,0,1-.909.363c-13.816-5.885-23.2-2.758-32.831.454-5.479,1.826-11.031,3.683-17.548,3.989-.561.1-.867-.1-.981-.568l-.005-.032c-.084-.39.141-.79.458-1.319a8.664,8.664,0,0,0,.78-1.568c.316-.946.215-2.017-1.651-2.648-4.236-1.421-11.571,2.754-14.885,4.646-1.243.707-2.04,1.164-2.478.866a.659.659,0,0,1-.23-.977c.158-.537,1.07-4.033-1.961-4.278-1.634-.138-3.576.7-5.846,1.684-3.861,1.666-8.622,3.731-14.926,2.55a35.1,35.1,0,0,0-6.424-.6,2.506,2.506,0,0,1-.1.271l-.018.036a5.9,5.9,0,0,1-1.44,1.981,8.414,8.414,0,0,1-2.078,1.386c-2.181,1.044-4.726,1.164-5.886.008a2.026,2.026,0,0,1-.61-1.155h0a2.082,2.082,0,0,1,.947-1.879,7.922,7.922,0,0,1,2.425-1.155,22.669,22.669,0,0,1,5.62-.853,4.97,4.97,0,0,0-1.729-3.572c-4.167-4.233-10.531-.262-16.688,3.585-5.748,3.589-11.336,7.076-15.463,4.238m32.52-1.63a4.835,4.835,0,0,0,.974-1.213,20.473,20.473,0,0,0-4.821.774,6.493,6.493,0,0,0-1.977.924c-.3.236-.447.44-.426.6a.625.625,0,0,0,.227.351c.733.738,2.6.538,4.291-.271A6.919,6.919,0,0,0,3315.974,1113.528Z" transform="translate(123.764 145.337)" fill="#454582"/>
    <path id="Контур_1141" data-name="Контур 1141" d="M3306.733,1090.506a3.2,3.2,0,1,1,3.043-3.2,2.975,2.975,0,0,1-3.043,3.2m0,2.053a5.242,5.242,0,1,0-5.447-5.251A5.156,5.156,0,0,0,3306.733,1092.558Z" transform="translate(186.166 69.619)" fill="#000038"/>
    <path id="Контур_1143" data-name="Контур 1143" d="M3281.292,1085.9h10.6v2.394h-10.6Zm0,4.332h10.6v2.394h-10.6Zm0-8.662h10.6v2.394h-10.6Z" transform="translate(117.343 67.857)" fill="#000038" fill-rule="evenodd"/>
    <path id="Контур_1144" data-name="Контур 1144" d="M3354.682,1119.571h0a7.365,7.365,0,1,1-7.367,7.365,7.369,7.369,0,0,1,7.367-7.365m-10.625-4.114a3.685,3.685,0,1,1-3.687,3.682A3.686,3.686,0,0,1,3344.056,1115.457Z" transform="translate(320.692 184.498)" fill="#fff" fill-rule="evenodd"/>
    <path id="Контур_1145" data-name="Контур 1145" d="M3373.161,1128.047l3.918,2.795s1.532-7.481,3.492-13.58,1.848-13.073.653-15.579a4.769,4.769,0,0,0-3.593-2.722,11.6,11.6,0,0,0-9.268-5.664c-6.421-.328-14.157.222-18.626-1.524s-8.933,2.83-6.321,9.91,12.533,5.993,12.533,5.993,2.394,16.779,17.213,20.372" transform="translate(328.516 101.695)" fill="#000038" fill-rule="evenodd"/>
    <path id="Контур_1146" data-name="Контур 1146" d="M3346.053,1118.4l4.638-4.219,2.821-1.284-2.5-7.628,10.84-7.516,2.612.111,4.443,13.153,3.055.5.617,6.334s-22.548,9.426-25.711,8.178-.814-7.628-.814-7.628" transform="translate(337.378 123.548)" fill="#ed87ab" fill-rule="evenodd"/>
    <path id="Контур_1147" data-name="Контур 1147" d="M3348.131,1156.306l13.362,2.172-.368,14.822-19.733,2.172-2.483-15.746Z" transform="translate(315.671 325.108)" fill="#ffabcf" fill-rule="evenodd"/>
    <path id="Контур_1148" data-name="Контур 1148" d="M3358.732,1163.491l.171,0h17.8l1.053,12.2h-43.032s1.306-6.405,4.426-8.5c2.3-1.541,10.932-2.212,15.183-3.754l-.831-4.287h1.52c2.776,0,3.567,3.545,3.7,4.335" transform="translate(301.283 334.914)" fill="#000038" fill-rule="evenodd"/>
    <path id="Контур_1149" data-name="Контур 1149" d="M3362.307,1157.66l13.531,2.172.733,14.822H3356.43l-4.263-18.741Z" transform="translate(361.3 323.753)" fill="#ffabcf" fill-rule="evenodd"/>
    <path id="Контур_1150" data-name="Контур 1150" d="M3429.08,1123.863s-6.8,62.439-6.454,71.4,3.492,32.055,3.515,51.565c.012,10,.167,22.157.315,31.623h-25.424c-6.085-27.59-17.431-79.59-17.839-85.747-.564-8.436-2.451-28.136-2.451-28.136s-5.007,22.589-6.014,26.764.153,16.854-1.086,22.153c-1.088,4.66-6.116,43.875-8.572,64.967h-24.181c-.58-28.048-3.272-87.7-2.628-90.127.7-2.616,12.571-64.833,12.571-64.833Z" transform="translate(313.095 212.163)" fill="#000038" fill-rule="evenodd"/>
    <path id="Контур_1151" data-name="Контур 1151" d="M3386.546,1109.329l32.464-3.27s6.977,16.627,6.1,43.356a506.282,506.282,0,0,1-4.46,50.872s-12.757,6.655-36.286,6.432-44.041-12.029-44.041-12.029,8.893-36.817,7.748-53.622,38.473-31.739,38.473-31.739" transform="translate(320.541 152.149)" fill="#1a8aeb" fill-rule="evenodd"/>
    <path id="Контур_1152" data-name="Контур 1152" d="M3396.154,1100.848s-.627,5.654-9.972,7.614-11.3-4.948-11.3-4.948-19.545,4.784-24.6,9.036-12.1,21.939-12.1,21.939l28.853,13.824,66.756,13.576,11.849-25.32s-9.347-22.691-15.464-27.08-34.026-8.64-34.026-8.64" transform="translate(313.186 134.211)" fill="#2678fa" fill-rule="evenodd"/>
    <path id="Контур_1153" data-name="Контур 1153" d="M3421.657,1111.114s-16.75,39.882-27.918,43.6-45.333-23.388-45.333-23.388a18.4,18.4,0,0,1-11.7-1.2c-6.252-2.786-16.09-11.3-16.09-11.3Z" transform="translate(252.717 169.549)" fill="#ffabcf" fill-rule="evenodd"/>
    <path id="Контур_1154" data-name="Контур 1154" d="M3320.032,1149.641l12.771-47.682,215.53,57.748c4.646,1.59,10.822,5.424,7.97,16.076l-5.812,21.673c-2.851,10.644-10.119,10.878-14.939,9.928Z" transform="translate(250.689 138.032)" fill="#838df9" fill-rule="evenodd"/>
    <path id="Контур_1155" data-name="Контур 1155" d="M3373.892,1112.966l33.02,8.849c4.646,1.59,10.822,5.424,7.969,16.076l-5.812,21.673c-2.851,10.644-10.119,10.879-14.938,9.928l-33.014-8.849Z" transform="translate(392.111 175.923)" fill="#595c9e" fill-rule="evenodd"/>
    <rect id="Прямоугольник_421" data-name="Прямоугольник 421" width="49.362" height="14.319" transform="matrix(0.258, -0.966, 0.966, 0.258, 3747.17, 1334.952)" fill="#e3e3fa"/>
    <path id="Контур_1156" data-name="Контур 1156" d="M3312.174,1106.618l8.6-2.3-2.3,8.606Z" transform="translate(223.641 146.146)" fill="#454582" fill-rule="evenodd"/>
    <path id="Контур_1157" data-name="Контур 1157" d="M3313.592,1121.033l2.3-8.606,39.077-10.469-12.771,47.678Z" transform="translate(228.52 138.034)" fill="#d1ccff" fill-rule="evenodd"/>
    <path id="Контур_1158" data-name="Контур 1158" d="M3362.866,1134.072l3.42-12.78,36.7,9.835c-2.9,10.43-10.1,10.653-14.881,9.706Z" transform="translate(398.131 204.583)" fill="#000038" fill-rule="evenodd"/>
    <path id="Контур_1167" data-name="Контур 1167" d="M0,0H13.226V182.672H0Z" transform="translate(3570.724 1287.641) rotate(-74.982)" fill="#a399e3"/>
    <path id="Контур_1159" data-name="Контур 1159" d="M3345.62,1123.868l-3.418,12.778-28.609-28.6.617-2.309Z" transform="translate(228.52 151.025)" fill="#bdb5ed" fill-rule="evenodd"/>
    <path id="Контур_1160" data-name="Контур 1160" d="M3319.089,1108.828l-.618,2.309-6.3-6.3Z" transform="translate(223.641 147.93)" fill="#1c1761" fill-rule="evenodd"/>
    <path id="Контур_1161" data-name="Контур 1161" d="M3359.75,1133.231l3.428-12.772,6.055,1.622,7.77,2.079-3.419,12.778-7.771-2.086Z" transform="translate(387.414 201.717)" fill="#d1ccff" fill-rule="evenodd"/>
    <path id="Контур_1162" data-name="Контур 1162" d="M3415.824,1108.889c2.71,6.343,7.144,17.382,9.52,27.061,3.594,14.593-49.033,29.647-49.033,29.647a32.235,32.235,0,0,1-15.045,3.652c-8.84,0-14.414-11.541-14.414-11.541a129.778,129.778,0,0,1,13.681-1.218,43.732,43.732,0,0,1,9.968,1.324s27.918-25.52,28.453-27.519c.345-1.3-3.163-8.329-5.634-13.029Z" transform="translate(343.004 161.89)" fill="#ffabcf" fill-rule="evenodd"/>
    <path id="Контур_1163" data-name="Контур 1163" d="M3371.481,1162.386l.292,1.226h17.979l1.958,12.2h-43.026s.826-6.406,3.788-8.5c2.181-1.541,10.763-2.212,14.9-3.753l-1.2-4.438h1.858c2.055,0,3.025,1.937,3.442,3.265" transform="translate(349.318 334.797)" fill="#000038" fill-rule="evenodd"/>
    <path id="Контур_1164" data-name="Контур 1164" d="M3363.379,1103.273s1.087-2.937,3.158-2.83,3.816,3.7,2.945,7.183-2.945,4.58-3.811,4.58a3.725,3.725,0,0,1-1.527-.329s-.437,5.446-2.942,8.173-9.368,5.122-12.315,4.247-3.375-8.165-3.917-13.073.218-17.1.218-17.1l7.081.329s.765,3.923,2.289,5.122,2.828,1.306,3.6,3.158,1.41,7.4,1.41,7.4l3.269-2.394Z" transform="translate(335.851 111.056)" fill="#ffabcf" fill-rule="evenodd"/>
  </g>
</svg>
