<svg xmlns="http://www.w3.org/2000/svg" width="44" height="34.42" viewBox="0 0 44 34.42">
  <g id="photo-camera" transform="translate(0.385)">
    <path id="Fill_1" data-name="Fill 1" d="M41.443,31H2.555A2.525,2.525,0,0,1,0,28.512V2.487A2.525,2.525,0,0,1,2.555,0H41.443A2.525,2.525,0,0,1,44,2.487V28.512A2.526,2.526,0,0,1,41.443,31ZM2.555,1.477A1.024,1.024,0,0,0,1.52,2.487V28.512a1.024,1.024,0,0,0,1.036,1.009H41.443a1.027,1.027,0,0,0,1.042-1.009V2.487a1.027,1.027,0,0,0-1.042-1.009Z" transform="translate(-0.385 3.42)" fill="#fff"/>
    <path id="Fill_2" data-name="Fill 2" d="M13,26A13,13,0,1,1,26,13,13.015,13.015,0,0,1,13,26ZM13,1.531A11.469,11.469,0,1,0,24.469,13,11.483,11.483,0,0,0,13,1.531Z" transform="translate(8.615 5.42)" fill="#fff"/>
    <path id="Fill_3" data-name="Fill 3" d="M.721,1.374H14.4a.705.705,0,0,0,.721-.687A.7.7,0,0,0,14.4,0H.721A.705.705,0,0,0,0,.687.706.706,0,0,0,.721,1.374Z" transform="translate(13.65)" fill="#fff"/>
  </g>
</svg>
