<svg id="facebook" xmlns="http://www.w3.org/2000/svg" xmlns:xlink="http://www.w3.org/1999/xlink" width="41.153" height="75.351" viewBox="0 0 41.153 75.351">
  <defs>
    <clipPath id="clip-path">
      <rect id="Прямоугольник_178" data-name="Прямоугольник 178" width="41.153" height="75.351" fill="#fff"/>
    </clipPath>
  </defs>
  <g id="Сгруппировать_748" data-name="Сгруппировать 748" transform="translate(0 0)">
    <g id="Сгруппировать_747" data-name="Сгруппировать 747" transform="translate(0)" clip-path="url(#clip-path)">
      <path id="Контур_1051" data-name="Контур 1051" d="M418.205,261.917l-9.772-.015c-10.977,0-18.073,7.279-18.073,18.543V289h-9.826A1.534,1.534,0,0,0,379,290.531v12.39a1.537,1.537,0,0,0,1.534,1.534h9.826v31.26a1.538,1.538,0,0,0,1.538,1.534h12.814a1.537,1.537,0,0,0,1.538-1.534v-31.26h11.487a1.535,1.535,0,0,0,1.535-1.534l.007-12.39a1.551,1.551,0,0,0-.452-1.087,1.535,1.535,0,0,0-1.087-.448H406.251v-7.249c0-3.483.831-5.252,5.367-5.252l6.583,0a1.534,1.534,0,0,0,1.534-1.534v-11.5a1.537,1.537,0,0,0-1.53-1.539Zm0,0" transform="translate(-379 -261.998)" fill="#fff"/>
    </g>
  </g>
</svg>
