<svg xmlns="http://www.w3.org/2000/svg" width="159.649" height="148.899" viewBox="0 0 159.649 148.899">
  <g id="speak" transform="translate(0 0)">
    <g id="speaker_1_" data-name="speaker (1)" transform="translate(0 0)">
      <path id="Контур_10451" data-name="Контур 10451" d="M100.085,8.372a10.148,10.148,0,0,0-10.306.063,3.2,3.2,0,0,0-.576.433L45.392,49.656a3.654,3.654,0,0,1-1.585.361H16.27A10.282,10.282,0,0,0,6,60.286v42.326a10.281,10.281,0,0,0,10.27,10.266H43.81a3.654,3.654,0,0,1,1.585.361l43.812,40.788a3.321,3.321,0,0,0,.576.433,10.157,10.157,0,0,0,10.306.063,10.157,10.157,0,0,0,5.168-8.91V17.282A10.153,10.153,0,0,0,100.085,8.372ZM98.639,145.614a3.652,3.652,0,0,1-5.231,3.292L49.59,108.111a3.061,3.061,0,0,0-.582-.433,10.246,10.246,0,0,0-5.2-1.416H16.27a3.656,3.656,0,0,1-3.653-3.653V60.286a3.656,3.656,0,0,1,3.653-3.653H43.81a10.255,10.255,0,0,0,5.2-1.416,3.061,3.061,0,0,0,.582-.433L93.412,13.99a3.648,3.648,0,0,1,5.228,3.292Z" transform="translate(-6 -6.998)" fill="#fff"/>
      <path id="Контур_10452" data-name="Контур 10452" d="M42.668,18.128a3.842,3.842,0,0,0,0,5.438,61.611,61.611,0,0,1,0,87.027,3.845,3.845,0,1,0,5.438,5.438,69.308,69.308,0,0,0,0-97.9A3.842,3.842,0,0,0,42.668,18.128Z" transform="translate(91.299 8.819)" fill="#fff"/>
      <path id="Контур_10453" data-name="Контур 10453" d="M44.566,21.128a3.845,3.845,0,1,0-5.438,5.438,42.435,42.435,0,0,1,0,59.943,3.845,3.845,0,1,0,5.438,5.438A50.132,50.132,0,0,0,44.566,21.128Z" transform="translate(81.225 17.357)" fill="#fff"/>
    </g>
  </g>
</svg>
