<svg xmlns="http://www.w3.org/2000/svg" width="74.541" height="96.109" viewBox="0 0 74.541 96.109">
  <g id="tab-notification" transform="translate(2.5 2.5)">
    <g id="Сгруппировать_832" data-name="Сгруппировать 832" transform="translate(0 0)">
      <g id="Сгруппировать_831" data-name="Сгруппировать 831">
        <path id="Контур_910" data-name="Контур 910" d="M588.978-255.059a27.1,27.1,0,0,1-8.272-19.783V-285.6c0-13.583-9.089-24.828-20.862-26.711v-4.17a3.683,3.683,0,0,0-3.478-3.86,3.682,3.682,0,0,0-3.477,3.86v4.17c-11.776,1.883-20.862,13.128-20.862,26.711v10.762a27.129,27.129,0,0,1-8.3,19.814,7.072,7.072,0,0,0-2.129,5.13c0,3.726,2.729,6.756,6.085,6.756h57.37c3.356,0,6.085-3.03,6.085-6.756a7.106,7.106,0,0,0-2.159-5.161Zm0,0" transform="translate(-521.597 320.344)" fill="#222455" stroke="#1c262f" stroke-width="5"/>
      </g>
    </g>
    <path id="Контур_911" data-name="Контур 911" d="M538.73-263.469A13.058,13.058,0,0,0,551.5-253.038h0a13.06,13.06,0,0,0,12.775-10.431M551.5-253.038" transform="translate(-516.734 344.147)" fill="none" stroke="#1c262f" stroke-linecap="round" stroke-linejoin="round" stroke-width="5"/>
  </g>
</svg>
