<svg xmlns="http://www.w3.org/2000/svg" width="82.768" height="96.109" viewBox="0 0 82.768 96.109">
  <g id="tasks" transform="translate(2.5 2.5)">
    <path id="Контур_907" data-name="Контур 907" d="M233.6-393.941v-49.05c0-3.87-3.413-7.008-7.624-7.008H163.457c-4.21,0-7.624,3.138-7.624,7.008V-365.9c0,3.87,3.414,7.008,7.624,7.008H196.8a7.959,7.959,0,0,0,5.509-2.164L231.487-389.1A6.721,6.721,0,0,0,233.6-393.941Z" transform="translate(-155.833 450)" fill="#222455" stroke="#1c262f" stroke-width="5"/>
    <path id="Контур_908" data-name="Контур 908" d="M182.649-376.568a3.812,3.812,0,0,1-3.8-3.6c-.038-.663-.772-16.365,9.459-26.121,6.089-5.805,14.573-8.194,25.233-7.106a3.812,3.812,0,0,1,3.4,4.18,3.8,3.8,0,0,1-4.181,3.4c-8.332-.851-14.793.842-19.195,5.04-7.714,7.357-7.113,20.058-7.107,20.186a3.813,3.813,0,0,1-3.6,4.015C182.789-376.569,182.719-376.568,182.649-376.568Z" transform="translate(-146.851 461.07)" fill="#fff"/>
  </g>
</svg>
