<svg id="twitter" xmlns="http://www.w3.org/2000/svg" width="79.204" height="64.335" viewBox="0 0 79.204 64.335">
  <path id="Контур_1052" data-name="Контур 1052" d="M472.2,302.611a32.476,32.476,0,0,1-9.331,2.568,16.366,16.366,0,0,0,7.153-9,32.377,32.377,0,0,1-10.345,3.941A16.244,16.244,0,0,0,431.6,311.242a16.871,16.871,0,0,0,.415,3.7,46.128,46.128,0,0,1-33.5-16.972,16.245,16.245,0,0,0,5.024,21.68,16,16,0,0,1-7.344-2.029v.2a16.29,16.29,0,0,0,13.024,15.951,16.766,16.766,0,0,1-4.275.551,16.412,16.412,0,0,1-3.069-.285,16.3,16.3,0,0,0,15.177,11.286,32.654,32.654,0,0,1-20.183,6.936,34.874,34.874,0,0,1-3.867-.217,45.982,45.982,0,0,0,24.916,7.295c29.872,0,46.213-24.749,46.213-46.207l-.049-2.1a32.733,32.733,0,0,0,8.124-8.414Zm0,0" transform="translate(-393 -295)" fill="#fff"/>
</svg>
